<svg width="100" height="128" viewBox="0 0 100 128" fill="none" xmlns="http://www.w3.org/2000/svg">
<path d="M2 97.2396H26.9964C37.5178 97.2396 40.8393 97.4657 37.925 102.09C36.2 104.802 35.3214 108.284 35.3214 111.531C35.3214 119.404 41.7285 125.812 49.6142 125.812C57.5 125.812 63.8965 119.404 63.8965 111.531C63.8965 108.284 63.0286 104.802 61.3143 102.09C58.4 97.4657 61.7108 97.2396 72.2429 97.2396H97.2393V72.2411C97.2393 61.7186 97.0143 58.4003 92.3857 61.3253C89.6857 63.0289 86.1822 63.8957 82.9465 63.8957C75.0608 63.8957 68.6643 57.5089 68.6643 49.6146C68.6643 41.7385 75.0608 35.3303 82.9465 35.3303C86.1822 35.3303 89.6857 36.21 92.3857 37.9253C97.0143 40.8386 97.2393 37.5075 97.2393 26.9936V1.99927H2V97.2396Z" stroke="#1D1D1D" stroke-width="4" stroke-miterlimit="10" stroke-linecap="round" stroke-linejoin="round"/>
</svg>
